# xmcd
#
# Track frame offsets:
# 150
# 13195
# 27888
# 44320
# 65193
# 81018
# 98905
# 116872
# 137047
# 153609
# 170154
# 183856
# 198842
#
# Disc length: 2963 seconds
#
#
# Revision: 0
# Processed by: cddbd v1.5.2PL0 Copyright (c) Steve Scherf et al.
# Submitted via: FreeRIP 2.96 
#
DISCID=b40b910d
DTITLE=Wiener Blue(s) - So oder So
DYEAR=2006
DGENRE=Folklore
TTITLE0=I h‰ng an meiner Weanerstadt
TTITLE1=Oba mi laﬂ bitte heut in Ruah
TTITLE2=Waaﬂt, Net, Verstehst (Selbstgespr‰ch eines Biernipplers
TTITLE3=Alt-Ottakringer Pilgerfahrt
TTITLE4=Der Hochzeitstag
TTITLE5=So oder So
TTITLE6=Schneeflockerl und Ruaﬂflankerl
TTITLE7=Impressionen im M‰rz
TTITLE8=Bei mir seid¥s alle im Oasch daham
TTITLE9=Heidschi Bumm Peitschi
TTITLE10=Der Ph‰ake
TTITLE11=Tivoli Lied
TTITLE12=Max ist Max
EXTD=Altwiener Blues und Country
EXTT0=
EXTT1=
EXTT2=
EXTT3=
EXTT4=
EXTT5=
EXTT6=
EXTT7=
EXTT8=
EXTT9=
EXTT10=
EXTT11=
EXTT12=
PLAYORDER=
